<?xml version="1.0" encoding="UTF-8" standalone="no"?><svg xmlns="http://www.w3.org/2000/svg" xmlns:xlink="http://www.w3.org/1999/xlink" height="356" version="1.1" width="811.72802734375"><defs/><g><g transform="translate(-382,-238) scale(1,1)"><rect fill="#C0C0C0" height="102" opacity="0.2" stroke="none" width="201.36572265625" x="399" y="255"/></g><g transform="translate(-382,-238) scale(1,1)"><rect fill="#ffffff" height="102" stroke="none" width="201.36572265625" x="392" y="248"/></g><g transform="translate(-382,-238) scale(1,1)"><path d="M 392 248 L 593.36572265625 248 L 593.36572265625 350 L 392 350 L 392 248 Z Z" fill="none" stroke="#000000" stroke-miterlimit="10"/></g><g transform="translate(-382,-238) scale(1,1)"><path d="M 392 273 L 593.36572265625 273" fill="none" stroke="#000000" stroke-miterlimit="10"/></g><g transform="translate(-382,-238) scale(1,1)"><path d="M 392 341 L 593.36572265625 341" fill="none" stroke="#000000" stroke-miterlimit="10"/></g><g transform="translate(-382,-238) scale(1,1)"><g><path fill="none" stroke="none"/><text fill="#000000" font-family="Arial" font-size="13px" font-style="normal" font-weight="bold" stroke="none" text-decoration="none" x="478.959228515625" y="267.5">User</text></g></g><g transform="translate(-382,-238) scale(1,1)"><g><path fill="none" stroke="none"/><text fill="#000000" font-family="Arial" font-size="13px" font-style="normal" font-weight="normal" stroke="none" text-decoration="none" x="397" y="290.5">+id: integer {id}</text></g></g><g transform="translate(-382,-238) scale(1,1)"><g><path fill="none" stroke="none"/><text fill="#000000" font-family="Arial" font-size="13px" font-style="normal" font-weight="normal" stroke="none" text-decoration="none" x="397" y="305.5">+email: string {unique}</text></g></g><g transform="translate(-382,-238) scale(1,1)"><g><path fill="none" stroke="none"/><text fill="#000000" font-family="Arial" font-size="13px" font-style="normal" font-weight="normal" stroke="none" text-decoration="none" x="397" y="320.5">+password: string</text></g></g><g transform="translate(-382,-238) scale(1,1)"><g><path fill="none" stroke="none"/><text fill="#000000" font-family="Arial" font-size="13px" font-style="normal" font-weight="normal" stroke="none" text-decoration="none" x="397" y="335.5">+name: string</text></g></g><g transform="translate(-382,-238) scale(1,1)"><rect fill="#C0C0C0" height="162" opacity="0.2" stroke="none" width="216" x="679" y="255"/></g><g transform="translate(-382,-238) scale(1,1)"><rect fill="#ffffff" height="162" stroke="none" width="216" x="672" y="248"/></g><g transform="translate(-382,-238) scale(1,1)"><path d="M 672 248 L 888 248 L 888 410 L 672 410 L 672 248 Z Z" fill="none" stroke="#000000" stroke-miterlimit="10"/></g><g transform="translate(-382,-238) scale(1,1)"><path d="M 672 273 L 888 273" fill="none" stroke="#000000" stroke-miterlimit="10"/></g><g transform="translate(-382,-238) scale(1,1)"><path d="M 672 401 L 888 401" fill="none" stroke="#000000" stroke-miterlimit="10"/></g><g transform="translate(-382,-238) scale(1,1)"><g><path fill="none" stroke="none"/><text fill="#000000" font-family="Arial" font-size="13px" font-style="normal" font-weight="bold" stroke="none" text-decoration="none" x="765.1845703125" y="267.5">Book</text></g></g><g transform="translate(-382,-238) scale(1,1)"><g><path fill="none" stroke="none"/><text fill="#000000" font-family="Arial" font-size="13px" font-style="normal" font-weight="normal" stroke="none" text-decoration="none" x="677" y="290.5">+id: integer {id}</text></g></g><g transform="translate(-382,-238) scale(1,1)"><g><path fill="none" stroke="none"/><text fill="#000000" font-family="Arial" font-size="13px" font-style="normal" font-weight="normal" stroke="none" text-decoration="none" x="677" y="305.5">+isbn: string[0..10]</text></g></g><g transform="translate(-382,-238) scale(1,1)"><g><path fill="none" stroke="none"/><text fill="#000000" font-family="Arial" font-size="13px" font-style="normal" font-weight="normal" stroke="none" text-decoration="none" x="677" y="320.5">+title: string</text></g></g><g transform="translate(-382,-238) scale(1,1)"><g><path fill="none" stroke="none"/><text fill="#000000" font-family="Arial" font-size="13px" font-style="normal" font-weight="normal" stroke="none" text-decoration="none" x="677" y="335.5">+year_published: Year</text></g></g><g transform="translate(-382,-238) scale(1,1)"><g><path fill="none" stroke="none"/><text fill="#000000" font-family="Arial" font-size="13px" font-style="normal" font-weight="normal" stroke="none" text-decoration="none" x="677" y="350.5">+publisher: string</text></g></g><g transform="translate(-382,-238) scale(1,1)"><g><path fill="none" stroke="none"/><text fill="#000000" font-family="Arial" font-size="13px" font-style="normal" font-weight="normal" stroke="none" text-decoration="none" x="677" y="365.5">+edition: integer</text></g></g><g transform="translate(-382,-238) scale(1,1)"><g><path fill="none" stroke="none"/><text fill="#000000" font-family="Arial" font-size="13px" font-style="normal" font-weight="normal" stroke="none" text-decoration="none" x="677" y="380.5">+language: Language[*]</text></g></g><g transform="translate(-382,-238) scale(1,1)"><g><path fill="none" stroke="none"/><text fill="#000000" font-family="Arial" font-size="13px" font-style="normal" font-weight="normal" stroke="none" text-decoration="none" x="677" y="395.5">+genre: Genre[*]</text></g></g><g transform="translate(-382,-238) scale(1,1)"><rect fill="#C0C0C0" height="88" opacity="0.2" stroke="none" width="200" x="687" y="503"/></g><g transform="translate(-382,-238) scale(1,1)"><rect fill="#ffffff" height="88" stroke="none" width="200" x="680" y="496"/></g><g transform="translate(-382,-238) scale(1,1)"><path d="M 680 496 L 880 496 L 880 584 L 680 584 L 680 496 Z Z" fill="none" stroke="#000000" stroke-miterlimit="10"/></g><g transform="translate(-382,-238) scale(1,1)"><path d="M 680 521 L 880 521" fill="none" stroke="#000000" stroke-miterlimit="10"/></g><g transform="translate(-382,-238) scale(1,1)"><path d="M 680 574 L 880 574" fill="none" stroke="#000000" stroke-miterlimit="10"/></g><g transform="translate(-382,-238) scale(1,1)"><g><path fill="none" stroke="none"/><text fill="#000000" font-family="Arial" font-size="13px" font-style="normal" font-weight="bold" stroke="none" text-decoration="none" x="760.84912109375" y="515.5">Author</text></g></g><g transform="translate(-382,-238) scale(1,1)"><g><path fill="none" stroke="none"/><text fill="#000000" font-family="Arial" font-size="13px" font-style="normal" font-weight="normal" stroke="none" text-decoration="none" x="685" y="538.5">+id: string {id}</text></g></g><g transform="translate(-382,-238) scale(1,1)"><g><path fill="none" stroke="none"/><text fill="#000000" font-family="Arial" font-size="13px" font-style="normal" font-weight="normal" stroke="none" text-decoration="none" x="685" y="553.5">+name: string</text></g></g><g transform="translate(-382,-238) scale(1,1)"><g><path fill="none" stroke="none"/><text fill="#000000" font-family="Arial" font-size="13px" font-style="normal" font-weight="normal" stroke="none" text-decoration="none" x="685" y="568.5">+birth_date: date</text></g></g><g transform="translate(-382,-238) scale(1,1)"><rect fill="#C0C0C0" height="210" opacity="0.2" stroke="none" width="95.72802734375" x="1095" y="255"/></g><g transform="translate(-382,-238) scale(1,1)"><rect fill="#ffffff" height="210" stroke="none" width="95.72802734375" x="1088" y="248"/></g><g transform="translate(-382,-238) scale(1,1)"><path d="M 1088 248 L 1183.72802734375 248 L 1183.72802734375 458 L 1088 458 L 1088 248 Z Z" fill="none" stroke="#000000" stroke-miterlimit="10"/></g><g transform="translate(-382,-238) scale(1,1)"><path d="M 1088 286 L 1183.72802734375 286" fill="none" stroke="#000000" stroke-miterlimit="10"/></g><g transform="translate(-382,-238) scale(1,1)"><g><path fill="none" stroke="none"/><text fill="#000000" font-family="Arial" font-size="13px" font-style="normal" font-weight="normal" stroke="none" text-decoration="none" x="1092.5" y="265.5">«enumeration»</text></g></g><g transform="translate(-382,-238) scale(1,1)"><g><path fill="none" stroke="none"/><text fill="#000000" font-family="Arial" font-size="13px" font-style="normal" font-weight="bold" stroke="none" text-decoration="none" x="1106.944091796875" y="280.5">Language</text></g></g><g transform="translate(-382,-238) scale(1,1)"><g><path fill="none" stroke="none"/><text fill="#000000" font-family="Arial" font-size="13px" font-style="normal" font-weight="normal" stroke="none" text-decoration="none" x="1093" y="303.5">chinese</text></g></g><g transform="translate(-382,-238) scale(1,1)"><g><path fill="none" stroke="none"/><text fill="#000000" font-family="Arial" font-size="13px" font-style="normal" font-weight="normal" stroke="none" text-decoration="none" x="1093" y="318.5">spanish</text></g></g><g transform="translate(-382,-238) scale(1,1)"><g><path fill="none" stroke="none"/><text fill="#000000" font-family="Arial" font-size="13px" font-style="normal" font-weight="normal" stroke="none" text-decoration="none" x="1093" y="333.5">english</text></g></g><g transform="translate(-382,-238) scale(1,1)"><g><path fill="none" stroke="none"/><text fill="#000000" font-family="Arial" font-size="13px" font-style="normal" font-weight="normal" stroke="none" text-decoration="none" x="1093" y="348.5">hindi</text></g></g><g transform="translate(-382,-238) scale(1,1)"><g><path fill="none" stroke="none"/><text fill="#000000" font-family="Arial" font-size="13px" font-style="normal" font-weight="normal" stroke="none" text-decoration="none" x="1093" y="363.5">arabic</text></g></g><g transform="translate(-382,-238) scale(1,1)"><g><path fill="none" stroke="none"/><text fill="#000000" font-family="Arial" font-size="13px" font-style="normal" font-weight="normal" stroke="none" text-decoration="none" x="1093" y="378.5">portuguese</text></g></g><g transform="translate(-382,-238) scale(1,1)"><g><path fill="none" stroke="none"/><text fill="#000000" font-family="Arial" font-size="13px" font-style="normal" font-weight="normal" stroke="none" text-decoration="none" x="1093" y="393.5">bengali</text></g></g><g transform="translate(-382,-238) scale(1,1)"><g><path fill="none" stroke="none"/><text fill="#000000" font-family="Arial" font-size="13px" font-style="normal" font-weight="normal" stroke="none" text-decoration="none" x="1093" y="408.5">russian</text></g></g><g transform="translate(-382,-238) scale(1,1)"><g><path fill="none" stroke="none"/><text fill="#000000" font-family="Arial" font-size="13px" font-style="normal" font-weight="normal" stroke="none" text-decoration="none" x="1093" y="423.5">japanese</text></g></g><g transform="translate(-382,-238) scale(1,1)"><g><path fill="none" stroke="none"/><text fill="#000000" font-family="Arial" font-size="13px" font-style="normal" font-weight="normal" stroke="none" text-decoration="none" x="1093" y="438.5">french</text></g></g><g transform="translate(-382,-238) scale(1,1)"><g><path fill="none" stroke="none"/><text fill="#000000" font-family="Arial" font-size="13px" font-style="normal" font-weight="normal" stroke="none" text-decoration="none" x="1093" y="453.5">german</text></g></g><g transform="translate(-382,-238) scale(1,1)"><rect fill="#C0C0C0" height="180" opacity="0.2" stroke="none" width="113.76171875" x="951" y="255"/></g><g transform="translate(-382,-238) scale(1,1)"><rect fill="#ffffff" height="180" stroke="none" width="113.76171875" x="944" y="248"/></g><g transform="translate(-382,-238) scale(1,1)"><path d="M 944 248 L 1057.76171875 248 L 1057.76171875 428 L 944 428 L 944 248 Z Z" fill="none" stroke="#000000" stroke-miterlimit="10"/></g><g transform="translate(-382,-238) scale(1,1)"><path d="M 944 286 L 1057.76171875 286" fill="none" stroke="#000000" stroke-miterlimit="10"/></g><g transform="translate(-382,-238) scale(1,1)"><g><path fill="none" stroke="none"/><text fill="#000000" font-family="Arial" font-size="13px" font-style="normal" font-weight="normal" stroke="none" text-decoration="none" x="957.516845703125" y="265.5">«enumeration»</text></g></g><g transform="translate(-382,-238) scale(1,1)"><g><path fill="none" stroke="none"/><text fill="#000000" font-family="Arial" font-size="13px" font-style="normal" font-weight="bold" stroke="none" text-decoration="none" x="982.8154296875" y="280.5">Genre</text></g></g><g transform="translate(-382,-238) scale(1,1)"><g><path fill="none" stroke="none"/><text fill="#000000" font-family="Arial" font-size="13px" font-style="normal" font-weight="normal" stroke="none" text-decoration="none" x="949" y="303.5">fantasy</text></g></g><g transform="translate(-382,-238) scale(1,1)"><g><path fill="none" stroke="none"/><text fill="#000000" font-family="Arial" font-size="13px" font-style="normal" font-weight="normal" stroke="none" text-decoration="none" x="949" y="318.5">science_fiction</text></g></g><g transform="translate(-382,-238) scale(1,1)"><g><path fill="none" stroke="none"/><text fill="#000000" font-family="Arial" font-size="13px" font-style="normal" font-weight="normal" stroke="none" text-decoration="none" x="949" y="333.5">adventure</text></g></g><g transform="translate(-382,-238) scale(1,1)"><g><path fill="none" stroke="none"/><text fill="#000000" font-family="Arial" font-size="13px" font-style="normal" font-weight="normal" stroke="none" text-decoration="none" x="949" y="348.5">romance</text></g></g><g transform="translate(-382,-238) scale(1,1)"><g><path fill="none" stroke="none"/><text fill="#000000" font-family="Arial" font-size="13px" font-style="normal" font-weight="normal" stroke="none" text-decoration="none" x="949" y="363.5">horror</text></g></g><g transform="translate(-382,-238) scale(1,1)"><g><path fill="none" stroke="none"/><text fill="#000000" font-family="Arial" font-size="13px" font-style="normal" font-weight="normal" stroke="none" text-decoration="none" x="949" y="378.5">thriller</text></g></g><g transform="translate(-382,-238) scale(1,1)"><g><path fill="none" stroke="none"/><text fill="#000000" font-family="Arial" font-size="13px" font-style="normal" font-weight="normal" stroke="none" text-decoration="none" x="949" y="393.5">LGTBQ</text></g></g><g transform="translate(-382,-238) scale(1,1)"><g><path fill="none" stroke="none"/><text fill="#000000" font-family="Arial" font-size="13px" font-style="normal" font-weight="normal" stroke="none" text-decoration="none" x="949" y="408.5">mistery</text></g></g><g transform="translate(-382,-238) scale(1,1)"><g><path fill="none" stroke="none"/><text fill="#000000" font-family="Arial" font-size="13px" font-style="normal" font-weight="normal" stroke="none" text-decoration="none" x="949" y="423.5">science</text></g></g><g transform="translate(-382,-238) scale(1,1)"><rect fill="#C0C0C0" height="37" opacity="0.2" stroke="none" width="74.5458984375" x="951" y="455"/></g><g transform="translate(-382,-238) scale(1,1)"><rect fill="#ffffff" height="37" stroke="none" width="74.5458984375" x="944" y="448"/></g><g transform="translate(-382,-238) scale(1,1)"><path d="M 944 448 L 1018.5458984375 448 L 1018.5458984375 485 L 944 485 L 944 448 Z Z" fill="none" stroke="#000000" stroke-miterlimit="10"/></g><g transform="translate(-382,-238) scale(1,1)"><g><path fill="none" stroke="none"/><text fill="#000000" font-family="Roboto" font-size="13px" font-style="normal" font-weight="normal" stroke="none" text-decoration="none" x="948.5" y="465.5">«dataType»</text></g></g><g transform="translate(-382,-238) scale(1,1)"><g><path fill="none" stroke="none"/><text fill="#000000" font-family="Roboto" font-size="13px" font-style="normal" font-weight="bold" stroke="none" text-decoration="none" x="968.396728515625" y="480.5">Year</text></g></g><g transform="translate(-382,-238) scale(1,1)"><path d="M 780 495 L 780 411" fill="none" stroke="#000000" stroke-miterlimit="10"/></g><g transform="translate(-382,-238) scale(1,1)"><g><path fill="none" stroke="none"/><text fill="#000000" font-family="Roboto" font-size="13px" font-style="normal" font-weight="normal" stroke="none" text-decoration="none" x="720.5" y="460.5">+wrote▲</text></g></g><g transform="translate(-382,-238) scale(1,1)"><g><path fill="none" stroke="none"/><text fill="#000000" font-family="Roboto" font-size="13px" font-style="normal" font-weight="normal" stroke="none" text-decoration="none" x="783.5" y="492.5">1..*</text></g></g><g transform="translate(-382,-238) scale(1,1)"><g><path fill="none" stroke="none"/><text fill="#000000" font-family="Roboto" font-size="13px" font-style="normal" font-weight="normal" stroke="none" text-decoration="none" x="782.5" y="438.5">1..*</text></g></g></g></svg>