<?xml version="1.0" encoding="UTF-8" standalone="no"?>
<svg xmlns="http://www.w3.org/2000/svg" xmlns:xlink="http://www.w3.org/1999/xlink" contentScriptType="application/ecmascript" contentStyleType="text/css" height="558px" preserveAspectRatio="none" style="width:1003px;height:558px;background:#FFFFFF;" version="1.1" viewBox="0 0 1003 558" width="1003px" zoomAndPan="magnify"><defs><filter height="300%" id="f1v0f0b5nh6d2z" width="300%" x="-1" y="-1"><feGaussianBlur result="blurOut" stdDeviation="2.0"/><feColorMatrix in="blurOut" result="blurOut2" type="matrix" values="0 0 0 0 0 0 0 0 0 0 0 0 0 0 0 0 0 0 .4 0"/><feOffset dx="4.0" dy="4.0" in="blurOut2" result="blurOut3"/><feBlend in="SourceGraphic" in2="blurOut3" mode="normal"/></filter></defs><g><!--MD5=[b029f726239e0f2c25d87df116f4cf87]
class BasicUser--><rect codeLine="1" fill="#FEFECE" filter="url(#f1v0f0b5nh6d2z)" height="60.8047" id="BasicUser" style="stroke:#A80036;stroke-width:1.5;" width="96" x="130.5" y="51.5"/><ellipse cx="146.85" cy="67.5" fill="#ADD1B2" rx="11" ry="11" style="stroke:#A80036;stroke-width:1.0;"/><path d="M149.1938,63.1719 C148.2563,62.7344 147.6625,62.5938 146.7875,62.5938 C144.1625,62.5938 142.1625,64.6719 142.1625,67.3906 L142.1625,68.5156 C142.1625,71.0938 144.2719,72.9844 147.1625,72.9844 C148.3813,72.9844 149.5375,72.6875 150.2875,72.1406 C150.8656,71.7344 151.1938,71.2813 151.1938,70.8906 C151.1938,70.4375 150.8031,70.0469 150.3344,70.0469 C150.1156,70.0469 149.9125,70.125 149.725,70.3125 C149.2719,70.7969 149.2719,70.7969 149.0844,70.8906 C148.6625,71.1563 147.975,71.2813 147.2094,71.2813 C145.1625,71.2813 143.8656,70.1875 143.8656,68.4844 L143.8656,67.3906 C143.8656,65.6094 145.1156,64.2969 146.85,64.2969 C147.4281,64.2969 148.0375,64.4531 148.5063,64.7031 C148.9906,64.9844 149.1625,65.2031 149.2563,65.6094 C149.3188,66.0156 149.35,66.1406 149.4906,66.2656 C149.6313,66.4063 149.8656,66.5156 150.0844,66.5156 C150.35,66.5156 150.6156,66.375 150.7875,66.1563 C150.8969,66 150.9281,65.8125 150.9281,65.3906 L150.9281,63.9688 C150.9281,63.5313 150.9125,63.4063 150.8188,63.25 C150.6625,62.9844 150.3813,62.8438 150.0844,62.8438 C149.7875,62.8438 149.5844,62.9375 149.3656,63.25 L149.1938,63.1719 Z " fill="#000000"/><text fill="#000000" font-family="sans-serif" font-size="12" lengthAdjust="spacing" textLength="61" x="161.15" y="71.6543">BasicUser</text><line style="stroke:#A80036;stroke-width:1.5;" x1="131.5" x2="225.5" y1="83.5" y2="83.5"/><text fill="#000000" font-family="sans-serif" font-size="11" lengthAdjust="spacing" textLength="84" x="136.5" y="97.7104">email * : string</text><line style="stroke:#A80036;stroke-width:1.5;" x1="131.5" x2="225.5" y1="104.3047" y2="104.3047"/><!--MD5=[242d126356a390b6264f0053ea25aaef]
class LogUser--><rect codeLine="5" fill="#FEFECE" filter="url(#f1v0f0b5nh6d2z)" height="60.8047" id="LogUser" style="stroke:#A80036;stroke-width:1.5;" width="113" x="7" y="298"/><ellipse cx="35.5" cy="314" fill="#ADD1B2" rx="11" ry="11" style="stroke:#A80036;stroke-width:1.0;"/><path d="M37.8438,309.6719 C36.9063,309.2344 36.3125,309.0938 35.4375,309.0938 C32.8125,309.0938 30.8125,311.1719 30.8125,313.8906 L30.8125,315.0156 C30.8125,317.5938 32.9219,319.4844 35.8125,319.4844 C37.0313,319.4844 38.1875,319.1875 38.9375,318.6406 C39.5156,318.2344 39.8438,317.7813 39.8438,317.3906 C39.8438,316.9375 39.4531,316.5469 38.9844,316.5469 C38.7656,316.5469 38.5625,316.625 38.375,316.8125 C37.9219,317.2969 37.9219,317.2969 37.7344,317.3906 C37.3125,317.6563 36.625,317.7813 35.8594,317.7813 C33.8125,317.7813 32.5156,316.6875 32.5156,314.9844 L32.5156,313.8906 C32.5156,312.1094 33.7656,310.7969 35.5,310.7969 C36.0781,310.7969 36.6875,310.9531 37.1563,311.2031 C37.6406,311.4844 37.8125,311.7031 37.9063,312.1094 C37.9688,312.5156 38,312.6406 38.1406,312.7656 C38.2813,312.9063 38.5156,313.0156 38.7344,313.0156 C39,313.0156 39.2656,312.875 39.4375,312.6563 C39.5469,312.5 39.5781,312.3125 39.5781,311.8906 L39.5781,310.4688 C39.5781,310.0313 39.5625,309.9063 39.4688,309.75 C39.3125,309.4844 39.0313,309.3438 38.7344,309.3438 C38.4375,309.3438 38.2344,309.4375 38.0156,309.75 L37.8438,309.6719 Z " fill="#000000"/><text fill="#000000" font-family="sans-serif" font-size="12" lengthAdjust="spacing" textLength="51" x="52.5" y="318.1543">LogUser</text><line style="stroke:#A80036;stroke-width:1.5;" x1="8" x2="119" y1="330" y2="330"/><text fill="#000000" font-family="sans-serif" font-size="11" lengthAdjust="spacing" textLength="101" x="13" y="344.2104">password *: string</text><line style="stroke:#A80036;stroke-width:1.5;" x1="8" x2="119" y1="350.8047" y2="350.8047"/><!--MD5=[38f366f165342aac958add041fe409b4]
class NewUser--><rect codeLine="10" fill="#FEFECE" filter="url(#f1v0f0b5nh6d2z)" height="60.8047" id="NewUser" style="stroke:#A80036;stroke-width:1.5;" width="87" x="20" y="484"/><ellipse cx="35" cy="500" fill="#ADD1B2" rx="11" ry="11" style="stroke:#A80036;stroke-width:1.0;"/><path d="M37.3438,495.6719 C36.4063,495.2344 35.8125,495.0938 34.9375,495.0938 C32.3125,495.0938 30.3125,497.1719 30.3125,499.8906 L30.3125,501.0156 C30.3125,503.5938 32.4219,505.4844 35.3125,505.4844 C36.5313,505.4844 37.6875,505.1875 38.4375,504.6406 C39.0156,504.2344 39.3438,503.7813 39.3438,503.3906 C39.3438,502.9375 38.9531,502.5469 38.4844,502.5469 C38.2656,502.5469 38.0625,502.625 37.875,502.8125 C37.4219,503.2969 37.4219,503.2969 37.2344,503.3906 C36.8125,503.6563 36.125,503.7813 35.3594,503.7813 C33.3125,503.7813 32.0156,502.6875 32.0156,500.9844 L32.0156,499.8906 C32.0156,498.1094 33.2656,496.7969 35,496.7969 C35.5781,496.7969 36.1875,496.9531 36.6563,497.2031 C37.1406,497.4844 37.3125,497.7031 37.4063,498.1094 C37.4688,498.5156 37.5,498.6406 37.6406,498.7656 C37.7813,498.9063 38.0156,499.0156 38.2344,499.0156 C38.5,499.0156 38.7656,498.875 38.9375,498.6563 C39.0469,498.5 39.0781,498.3125 39.0781,497.8906 L39.0781,496.4688 C39.0781,496.0313 39.0625,495.9063 38.9688,495.75 C38.8125,495.4844 38.5313,495.3438 38.2344,495.3438 C37.9375,495.3438 37.7344,495.4375 37.5156,495.75 L37.3438,495.6719 Z " fill="#000000"/><text fill="#000000" font-family="sans-serif" font-size="12" lengthAdjust="spacing" textLength="55" x="49" y="504.1543">NewUser</text><line style="stroke:#A80036;stroke-width:1.5;" x1="21" x2="106" y1="516" y2="516"/><text fill="#000000" font-family="sans-serif" font-size="11" lengthAdjust="spacing" textLength="71" x="26" y="530.2104">name: string</text><line style="stroke:#A80036;stroke-width:1.5;" x1="21" x2="106" y1="536.8047" y2="536.8047"/><!--MD5=[3fd616f346a44cd59a91eb10b19e157c]
class User--><rect codeLine="15" fill="#FEFECE" filter="url(#f1v0f0b5nh6d2z)" height="73.6094" id="User" style="stroke:#A80036;stroke-width:1.5;" width="83" x="155" y="291.5"/><ellipse cx="179.9" cy="307.5" fill="#ADD1B2" rx="11" ry="11" style="stroke:#A80036;stroke-width:1.0;"/><path d="M182.2438,303.1719 C181.3063,302.7344 180.7125,302.5938 179.8375,302.5938 C177.2125,302.5938 175.2125,304.6719 175.2125,307.3906 L175.2125,308.5156 C175.2125,311.0938 177.3219,312.9844 180.2125,312.9844 C181.4313,312.9844 182.5875,312.6875 183.3375,312.1406 C183.9156,311.7344 184.2438,311.2813 184.2438,310.8906 C184.2438,310.4375 183.8531,310.0469 183.3844,310.0469 C183.1656,310.0469 182.9625,310.125 182.775,310.3125 C182.3219,310.7969 182.3219,310.7969 182.1344,310.8906 C181.7125,311.1563 181.025,311.2813 180.2594,311.2813 C178.2125,311.2813 176.9156,310.1875 176.9156,308.4844 L176.9156,307.3906 C176.9156,305.6094 178.1656,304.2969 179.9,304.2969 C180.4781,304.2969 181.0875,304.4531 181.5563,304.7031 C182.0406,304.9844 182.2125,305.2031 182.3063,305.6094 C182.3688,306.0156 182.4,306.1406 182.5406,306.2656 C182.6813,306.4063 182.9156,306.5156 183.1344,306.5156 C183.4,306.5156 183.6656,306.375 183.8375,306.1563 C183.9469,306 183.9781,305.8125 183.9781,305.3906 L183.9781,303.9688 C183.9781,303.5313 183.9625,303.4063 183.8688,303.25 C183.7125,302.9844 183.4313,302.8438 183.1344,302.8438 C182.8375,302.8438 182.6344,302.9375 182.4156,303.25 L182.2438,303.1719 Z " fill="#000000"/><text fill="#000000" font-family="sans-serif" font-size="12" lengthAdjust="spacing" textLength="29" x="196.1" y="311.6543">User</text><line style="stroke:#A80036;stroke-width:1.5;" x1="156" x2="237" y1="323.5" y2="323.5"/><text fill="#000000" font-family="sans-serif" font-size="11" lengthAdjust="spacing" textLength="62" x="161" y="337.7104">id * : string</text><text fill="#000000" font-family="sans-serif" font-size="11" lengthAdjust="spacing" textLength="71" x="161" y="350.5151">name: string</text><line style="stroke:#A80036;stroke-width:1.5;" x1="156" x2="237" y1="357.1094" y2="357.1094"/><!--MD5=[2ebf24599b52e343c1372a1ebae412b5]
class BookProperties--><rect codeLine="21" fill="#FEFECE" filter="url(#f1v0f0b5nh6d2z)" height="150.4375" id="BookProperties" style="stroke:#A80036;stroke-width:1.5;" width="145" x="487" y="7"/><ellipse cx="511" cy="23" fill="#ADD1B2" rx="11" ry="11" style="stroke:#A80036;stroke-width:1.0;"/><path d="M513.3438,18.6719 C512.4063,18.2344 511.8125,18.0938 510.9375,18.0938 C508.3125,18.0938 506.3125,20.1719 506.3125,22.8906 L506.3125,24.0156 C506.3125,26.5938 508.4219,28.4844 511.3125,28.4844 C512.5313,28.4844 513.6875,28.1875 514.4375,27.6406 C515.0156,27.2344 515.3438,26.7813 515.3438,26.3906 C515.3438,25.9375 514.9531,25.5469 514.4844,25.5469 C514.2656,25.5469 514.0625,25.625 513.875,25.8125 C513.4219,26.2969 513.4219,26.2969 513.2344,26.3906 C512.8125,26.6563 512.125,26.7813 511.3594,26.7813 C509.3125,26.7813 508.0156,25.6875 508.0156,23.9844 L508.0156,22.8906 C508.0156,21.1094 509.2656,19.7969 511,19.7969 C511.5781,19.7969 512.1875,19.9531 512.6563,20.2031 C513.1406,20.4844 513.3125,20.7031 513.4063,21.1094 C513.4688,21.5156 513.5,21.6406 513.6406,21.7656 C513.7813,21.9063 514.0156,22.0156 514.2344,22.0156 C514.5,22.0156 514.7656,21.875 514.9375,21.6563 C515.0469,21.5 515.0781,21.3125 515.0781,20.8906 L515.0781,19.4688 C515.0781,19.0313 515.0625,18.9063 514.9688,18.75 C514.8125,18.4844 514.5313,18.3438 514.2344,18.3438 C513.9375,18.3438 513.7344,18.4375 513.5156,18.75 L513.3438,18.6719 Z " fill="#000000"/><text fill="#000000" font-family="sans-serif" font-size="12" lengthAdjust="spacing" textLength="93" x="527" y="27.1543">BookProperties</text><line style="stroke:#A80036;stroke-width:1.5;" x1="488" x2="631" y1="39" y2="39"/><text fill="#000000" font-family="sans-serif" font-size="11" lengthAdjust="spacing" textLength="75" x="493" y="53.2104">isbn * : string</text><text fill="#000000" font-family="sans-serif" font-size="11" lengthAdjust="spacing" textLength="74" x="493" y="66.0151">title * : string</text><text fill="#000000" font-family="sans-serif" font-size="11" lengthAdjust="spacing" textLength="95" x="493" y="78.8198">edition  : integer</text><text fill="#000000" font-family="sans-serif" font-size="11" lengthAdjust="spacing" textLength="133" x="493" y="91.6245">year_published  : string</text><text fill="#000000" font-family="sans-serif" font-size="11" lengthAdjust="spacing" textLength="88" x="493" y="104.4292">author  : Author</text><text fill="#000000" font-family="sans-serif" font-size="11" lengthAdjust="spacing" textLength="98" x="493" y="117.2339">publisher  : string</text><text fill="#000000" font-family="sans-serif" font-size="11" lengthAdjust="spacing" textLength="124" x="493" y="130.0386">language  : Language</text><text fill="#000000" font-family="sans-serif" font-size="11" lengthAdjust="spacing" textLength="85" x="493" y="142.8433">genre  : Genre</text><line style="stroke:#A80036;stroke-width:1.5;" x1="488" x2="631" y1="149.4375" y2="149.4375"/><!--MD5=[c3f280b58e8dd0683e81b8ec31306a35]
class Author--><rect codeLine="56" fill="#FEFECE" filter="url(#f1v0f0b5nh6d2z)" height="86.4141" id="Author" style="stroke:#A80036;stroke-width:1.5;" width="110" x="314.5" y="285.5"/><ellipse cx="347.05" cy="301.5" fill="#ADD1B2" rx="11" ry="11" style="stroke:#A80036;stroke-width:1.0;"/><path d="M349.3938,297.1719 C348.4563,296.7344 347.8625,296.5938 346.9875,296.5938 C344.3625,296.5938 342.3625,298.6719 342.3625,301.3906 L342.3625,302.5156 C342.3625,305.0938 344.4719,306.9844 347.3625,306.9844 C348.5813,306.9844 349.7375,306.6875 350.4875,306.1406 C351.0656,305.7344 351.3938,305.2813 351.3938,304.8906 C351.3938,304.4375 351.0031,304.0469 350.5344,304.0469 C350.3156,304.0469 350.1125,304.125 349.925,304.3125 C349.4719,304.7969 349.4719,304.7969 349.2844,304.8906 C348.8625,305.1563 348.175,305.2813 347.4094,305.2813 C345.3625,305.2813 344.0656,304.1875 344.0656,302.4844 L344.0656,301.3906 C344.0656,299.6094 345.3156,298.2969 347.05,298.2969 C347.6281,298.2969 348.2375,298.4531 348.7063,298.7031 C349.1906,298.9844 349.3625,299.2031 349.4563,299.6094 C349.5188,300.0156 349.55,300.1406 349.6906,300.2656 C349.8313,300.4063 350.0656,300.5156 350.2844,300.5156 C350.55,300.5156 350.8156,300.375 350.9875,300.1563 C351.0969,300 351.1281,299.8125 351.1281,299.3906 L351.1281,297.9688 C351.1281,297.5313 351.1125,297.4063 351.0188,297.25 C350.8625,296.9844 350.5813,296.8438 350.2844,296.8438 C349.9875,296.8438 349.7844,296.9375 349.5656,297.25 L349.3938,297.1719 Z " fill="#000000"/><text fill="#000000" font-family="sans-serif" font-size="12" lengthAdjust="spacing" textLength="39" x="364.95" y="305.6543">Author</text><line style="stroke:#A80036;stroke-width:1.5;" x1="315.5" x2="423.5" y1="317.5" y2="317.5"/><text fill="#000000" font-family="sans-serif" font-size="11" lengthAdjust="spacing" textLength="62" x="320.5" y="331.7104">id * : string</text><text fill="#000000" font-family="sans-serif" font-size="11" lengthAdjust="spacing" textLength="85" x="320.5" y="344.5151">name * : string</text><text fill="#000000" font-family="sans-serif" font-size="11" lengthAdjust="spacing" textLength="98" x="320.5" y="357.3198">birth_date  : date</text><line style="stroke:#A80036;stroke-width:1.5;" x1="315.5" x2="423.5" y1="363.9141" y2="363.9141"/><!--MD5=[604575fdb45ee3504bf55618cb71a1d3]
class Language--><rect codeLine="71" fill="#FEFECE" filter="url(#f1v0f0b5nh6d2z)" height="188.8516" id="Language" style="stroke:#A80036;stroke-width:1.5;" width="90" x="475.5" y="234"/><ellipse cx="490.5" cy="250" fill="#EB937F" rx="11" ry="11" style="stroke:#A80036;stroke-width:1.0;"/><path d="M489.2969,250.875 L490.75,250.875 L490.75,250.9844 C490.75,251.3906 490.7813,251.5469 490.8594,251.7031 C491.0156,251.9531 491.2969,252.1094 491.5938,252.1094 C491.8438,252.1094 492.1094,251.9688 492.2656,251.75 C492.3906,251.5938 492.4219,251.4375 492.4219,250.9844 L492.4219,249.0625 C492.4219,248.9063 492.4219,248.8594 492.4063,248.7031 C492.3438,248.2344 492.0313,247.9219 491.5781,247.9219 C491.3281,247.9219 491.0625,248.0625 490.8906,248.2813 C490.7813,248.4531 490.75,248.6094 490.75,249.0625 L490.75,249.1875 L489.2969,249.1875 L489.2969,246.7813 L493.2813,246.7813 L493.2813,247.6406 C493.2813,248.0469 493.3125,248.2188 493.3906,248.375 C493.5625,248.625 493.8438,248.7813 494.125,248.7813 C494.3906,248.7813 494.6563,248.6406 494.8281,248.4219 C494.9375,248.25 494.9688,248.1094 494.9688,247.6406 L494.9688,245.0938 L487.3438,245.0938 C486.9063,245.0938 486.7813,245.1094 486.625,245.2031 C486.375,245.3594 486.2188,245.6563 486.2188,245.9375 C486.2188,246.2188 486.3594,246.4688 486.5781,246.6406 C486.7344,246.75 486.9219,246.7813 487.3438,246.7813 L487.5938,246.7813 L487.5938,253.2969 L487.3438,253.2969 C486.9375,253.2969 486.7813,253.3125 486.625,253.4219 C486.375,253.5938 486.2188,253.8594 486.2188,254.1563 C486.2188,254.4219 486.3594,254.6719 486.5781,254.8281 C486.7188,254.9531 486.9531,255 487.3438,255 L495.3438,255 L495.3438,252.4219 C495.3438,251.9844 495.3125,251.8438 495.2344,251.6875 C495.0625,251.4375 494.7813,251.2813 494.5,251.2813 C494.2344,251.2813 493.9688,251.3906 493.7969,251.6406 C493.6875,251.7969 493.6563,251.9375 493.6563,252.4219 L493.6563,253.2969 L489.2969,253.2969 L489.2969,250.875 Z " fill="#000000"/><text fill="#000000" font-family="sans-serif" font-size="12" lengthAdjust="spacing" textLength="58" x="504.5" y="254.1543">Language</text><line style="stroke:#A80036;stroke-width:1.5;" x1="476.5" x2="564.5" y1="266" y2="266"/><text fill="#000000" font-family="sans-serif" font-size="11" lengthAdjust="spacing" textLength="45" x="481.5" y="280.2104">chinese</text><text fill="#000000" font-family="sans-serif" font-size="11" lengthAdjust="spacing" textLength="43" x="481.5" y="293.0151">spanish</text><text fill="#000000" font-family="sans-serif" font-size="11" lengthAdjust="spacing" textLength="41" x="481.5" y="305.8198">english</text><text fill="#000000" font-family="sans-serif" font-size="11" lengthAdjust="spacing" textLength="27" x="481.5" y="318.6245">hindi</text><text fill="#000000" font-family="sans-serif" font-size="11" lengthAdjust="spacing" textLength="34" x="481.5" y="331.4292">arabic</text><text fill="#000000" font-family="sans-serif" font-size="11" lengthAdjust="spacing" textLength="65" x="481.5" y="344.2339">portuguese</text><text fill="#000000" font-family="sans-serif" font-size="11" lengthAdjust="spacing" textLength="42" x="481.5" y="357.0386">bengali</text><text fill="#000000" font-family="sans-serif" font-size="11" lengthAdjust="spacing" textLength="40" x="481.5" y="369.8433">russian</text><text fill="#000000" font-family="sans-serif" font-size="11" lengthAdjust="spacing" textLength="53" x="481.5" y="382.6479">japanese</text><text fill="#000000" font-family="sans-serif" font-size="11" lengthAdjust="spacing" textLength="36" x="481.5" y="395.4526">french</text><text fill="#000000" font-family="sans-serif" font-size="11" lengthAdjust="spacing" textLength="44" x="481.5" y="408.2573">german</text><line style="stroke:#A80036;stroke-width:1.5;" x1="476.5" x2="564.5" y1="414.8516" y2="414.8516"/><!--MD5=[f375b3d0fae4d15774812e930c824519]
class Genre--><rect codeLine="85" fill="#FEFECE" filter="url(#f1v0f0b5nh6d2z)" height="163.2422" id="Genre" style="stroke:#A80036;stroke-width:1.5;" width="96" x="600.5" y="247"/><ellipse cx="627.65" cy="263" fill="#EB937F" rx="11" ry="11" style="stroke:#A80036;stroke-width:1.0;"/><path d="M626.4469,263.875 L627.9,263.875 L627.9,263.9844 C627.9,264.3906 627.9313,264.5469 628.0094,264.7031 C628.1656,264.9531 628.4469,265.1094 628.7438,265.1094 C628.9938,265.1094 629.2594,264.9688 629.4156,264.75 C629.5406,264.5938 629.5719,264.4375 629.5719,263.9844 L629.5719,262.0625 C629.5719,261.9063 629.5719,261.8594 629.5563,261.7031 C629.4938,261.2344 629.1813,260.9219 628.7281,260.9219 C628.4781,260.9219 628.2125,261.0625 628.0406,261.2813 C627.9313,261.4531 627.9,261.6094 627.9,262.0625 L627.9,262.1875 L626.4469,262.1875 L626.4469,259.7813 L630.4313,259.7813 L630.4313,260.6406 C630.4313,261.0469 630.4625,261.2188 630.5406,261.375 C630.7125,261.625 630.9938,261.7813 631.275,261.7813 C631.5406,261.7813 631.8063,261.6406 631.9781,261.4219 C632.0875,261.25 632.1188,261.1094 632.1188,260.6406 L632.1188,258.0938 L624.4938,258.0938 C624.0563,258.0938 623.9313,258.1094 623.775,258.2031 C623.525,258.3594 623.3688,258.6563 623.3688,258.9375 C623.3688,259.2188 623.5094,259.4688 623.7281,259.6406 C623.8844,259.75 624.0719,259.7813 624.4938,259.7813 L624.7438,259.7813 L624.7438,266.2969 L624.4938,266.2969 C624.0875,266.2969 623.9313,266.3125 623.775,266.4219 C623.525,266.5938 623.3688,266.8594 623.3688,267.1563 C623.3688,267.4219 623.5094,267.6719 623.7281,267.8281 C623.8688,267.9531 624.1031,268 624.4938,268 L632.4938,268 L632.4938,265.4219 C632.4938,264.9844 632.4625,264.8438 632.3844,264.6875 C632.2125,264.4375 631.9313,264.2813 631.65,264.2813 C631.3844,264.2813 631.1188,264.3906 630.9469,264.6406 C630.8375,264.7969 630.8063,264.9375 630.8063,265.4219 L630.8063,266.2969 L626.4469,266.2969 L626.4469,263.875 Z " fill="#000000"/><text fill="#000000" font-family="sans-serif" font-size="12" lengthAdjust="spacing" textLength="37" x="644.35" y="267.1543">Genre</text><line style="stroke:#A80036;stroke-width:1.5;" x1="601.5" x2="695.5" y1="279" y2="279"/><text fill="#000000" font-family="sans-serif" font-size="11" lengthAdjust="spacing" textLength="42" x="606.5" y="293.2104">fantasy</text><text fill="#000000" font-family="sans-serif" font-size="11" lengthAdjust="spacing" textLength="84" x="606.5" y="306.0151">science_fiction</text><text fill="#000000" font-family="sans-serif" font-size="11" lengthAdjust="spacing" textLength="59" x="606.5" y="318.8198">adventure</text><text fill="#000000" font-family="sans-serif" font-size="11" lengthAdjust="spacing" textLength="50" x="606.5" y="331.6245">romance</text><text fill="#000000" font-family="sans-serif" font-size="11" lengthAdjust="spacing" textLength="33" x="606.5" y="344.4292">horror</text><text fill="#000000" font-family="sans-serif" font-size="11" lengthAdjust="spacing" textLength="36" x="606.5" y="357.2339">thriller</text><text fill="#000000" font-family="sans-serif" font-size="11" lengthAdjust="spacing" textLength="39" x="606.5" y="370.0386">LGTBQ</text><text fill="#000000" font-family="sans-serif" font-size="11" lengthAdjust="spacing" textLength="43" x="606.5" y="382.8433">mistery</text><text fill="#000000" font-family="sans-serif" font-size="11" lengthAdjust="spacing" textLength="44" x="606.5" y="395.6479">science</text><line style="stroke:#A80036;stroke-width:1.5;" x1="601.5" x2="695.5" y1="402.2422" y2="402.2422"/><!--MD5=[a2cd242edbdb0ade6219c1ed6a13bd36]
class BasicBook--><rect codeLine="36" fill="#FEFECE" filter="url(#f1v0f0b5nh6d2z)" height="86.4141" id="BasicBook" style="stroke:#A80036;stroke-width:1.5;" width="100" x="310.5" y="39"/><ellipse cx="327.75" cy="55" fill="#ADD1B2" rx="11" ry="11" style="stroke:#A80036;stroke-width:1.0;"/><path d="M330.0938,50.6719 C329.1563,50.2344 328.5625,50.0938 327.6875,50.0938 C325.0625,50.0938 323.0625,52.1719 323.0625,54.8906 L323.0625,56.0156 C323.0625,58.5938 325.1719,60.4844 328.0625,60.4844 C329.2813,60.4844 330.4375,60.1875 331.1875,59.6406 C331.7656,59.2344 332.0938,58.7813 332.0938,58.3906 C332.0938,57.9375 331.7031,57.5469 331.2344,57.5469 C331.0156,57.5469 330.8125,57.625 330.625,57.8125 C330.1719,58.2969 330.1719,58.2969 329.9844,58.3906 C329.5625,58.6563 328.875,58.7813 328.1094,58.7813 C326.0625,58.7813 324.7656,57.6875 324.7656,55.9844 L324.7656,54.8906 C324.7656,53.1094 326.0156,51.7969 327.75,51.7969 C328.3281,51.7969 328.9375,51.9531 329.4063,52.2031 C329.8906,52.4844 330.0625,52.7031 330.1563,53.1094 C330.2188,53.5156 330.25,53.6406 330.3906,53.7656 C330.5313,53.9063 330.7656,54.0156 330.9844,54.0156 C331.25,54.0156 331.5156,53.875 331.6875,53.6563 C331.7969,53.5 331.8281,53.3125 331.8281,52.8906 L331.8281,51.4688 C331.8281,51.0313 331.8125,50.9063 331.7188,50.75 C331.5625,50.4844 331.2813,50.3438 330.9844,50.3438 C330.6875,50.3438 330.4844,50.4375 330.2656,50.75 L330.0938,50.6719 Z " fill="#000000"/><text fill="#000000" font-family="sans-serif" font-size="12" lengthAdjust="spacing" textLength="63" x="342.25" y="59.1543">BasicBook</text><line style="stroke:#A80036;stroke-width:1.5;" x1="311.5" x2="409.5" y1="71" y2="71"/><text fill="#000000" font-family="sans-serif" font-size="11" lengthAdjust="spacing" textLength="75" x="316.5" y="85.2104">isbn * : string</text><text fill="#000000" font-family="sans-serif" font-size="11" lengthAdjust="spacing" textLength="74" x="316.5" y="98.0151">title * : string</text><text fill="#000000" font-family="sans-serif" font-size="11" lengthAdjust="spacing" textLength="88" x="316.5" y="110.8198">author  : Author</text><line style="stroke:#A80036;stroke-width:1.5;" x1="311.5" x2="409.5" y1="117.4141" y2="117.4141"/><!--MD5=[84e3a5e42879fb3231104d3c8e592439]
class Book--><rect codeLine="44" fill="#FEFECE" filter="url(#f1v0f0b5nh6d2z)" height="60.8047" id="Book" style="stroke:#A80036;stroke-width:1.5;" width="74" x="731.5" y="298"/><ellipse cx="751.45" cy="314" fill="#ADD1B2" rx="11" ry="11" style="stroke:#A80036;stroke-width:1.0;"/><path d="M753.7938,309.6719 C752.8563,309.2344 752.2625,309.0938 751.3875,309.0938 C748.7625,309.0938 746.7625,311.1719 746.7625,313.8906 L746.7625,315.0156 C746.7625,317.5938 748.8719,319.4844 751.7625,319.4844 C752.9813,319.4844 754.1375,319.1875 754.8875,318.6406 C755.4656,318.2344 755.7938,317.7813 755.7938,317.3906 C755.7938,316.9375 755.4031,316.5469 754.9344,316.5469 C754.7156,316.5469 754.5125,316.625 754.325,316.8125 C753.8719,317.2969 753.8719,317.2969 753.6844,317.3906 C753.2625,317.6563 752.575,317.7813 751.8094,317.7813 C749.7625,317.7813 748.4656,316.6875 748.4656,314.9844 L748.4656,313.8906 C748.4656,312.1094 749.7156,310.7969 751.45,310.7969 C752.0281,310.7969 752.6375,310.9531 753.1063,311.2031 C753.5906,311.4844 753.7625,311.7031 753.8563,312.1094 C753.9188,312.5156 753.95,312.6406 754.0906,312.7656 C754.2313,312.9063 754.4656,313.0156 754.6844,313.0156 C754.95,313.0156 755.2156,312.875 755.3875,312.6563 C755.4969,312.5 755.5281,312.3125 755.5281,311.8906 L755.5281,310.4688 C755.5281,310.0313 755.5125,309.9063 755.4188,309.75 C755.2625,309.4844 754.9813,309.3438 754.6844,309.3438 C754.3875,309.3438 754.1844,309.4375 753.9656,309.75 L753.7938,309.6719 Z " fill="#000000"/><text fill="#000000" font-family="sans-serif" font-size="12" lengthAdjust="spacing" textLength="31" x="766.55" y="318.1543">Book</text><line style="stroke:#A80036;stroke-width:1.5;" x1="732.5" x2="804.5" y1="330" y2="330"/><text fill="#000000" font-family="sans-serif" font-size="11" lengthAdjust="spacing" textLength="62" x="737.5" y="344.2104">id * : string</text><line style="stroke:#A80036;stroke-width:1.5;" x1="732.5" x2="804.5" y1="350.8047" y2="350.8047"/><!--MD5=[860c8df4ca18110d650b193d5e565307]
class SuccessBook--><rect codeLine="49" fill="#FEFECE" filter="url(#f1v0f0b5nh6d2z)" height="73.6094" id="SuccessBook" style="stroke:#A80036;stroke-width:1.5;" width="124" x="706.5" y="45"/><ellipse cx="726" cy="61" fill="#ADD1B2" rx="11" ry="11" style="stroke:#A80036;stroke-width:1.0;"/><path d="M728.3438,56.6719 C727.4063,56.2344 726.8125,56.0938 725.9375,56.0938 C723.3125,56.0938 721.3125,58.1719 721.3125,60.8906 L721.3125,62.0156 C721.3125,64.5938 723.4219,66.4844 726.3125,66.4844 C727.5313,66.4844 728.6875,66.1875 729.4375,65.6406 C730.0156,65.2344 730.3438,64.7813 730.3438,64.3906 C730.3438,63.9375 729.9531,63.5469 729.4844,63.5469 C729.2656,63.5469 729.0625,63.625 728.875,63.8125 C728.4219,64.2969 728.4219,64.2969 728.2344,64.3906 C727.8125,64.6563 727.125,64.7813 726.3594,64.7813 C724.3125,64.7813 723.0156,63.6875 723.0156,61.9844 L723.0156,60.8906 C723.0156,59.1094 724.2656,57.7969 726,57.7969 C726.5781,57.7969 727.1875,57.9531 727.6563,58.2031 C728.1406,58.4844 728.3125,58.7031 728.4063,59.1094 C728.4688,59.5156 728.5,59.6406 728.6406,59.7656 C728.7813,59.9063 729.0156,60.0156 729.2344,60.0156 C729.5,60.0156 729.7656,59.875 729.9375,59.6563 C730.0469,59.5 730.0781,59.3125 730.0781,58.8906 L730.0781,57.4688 C730.0781,57.0313 730.0625,56.9063 729.9688,56.75 C729.8125,56.4844 729.5313,56.3438 729.2344,56.3438 C728.9375,56.3438 728.7344,56.4375 728.5156,56.75 L728.3438,56.6719 Z " fill="#000000"/><text fill="#000000" font-family="sans-serif" font-size="12" lengthAdjust="spacing" textLength="82" x="741" y="65.1543">SuccessBook</text><line style="stroke:#A80036;stroke-width:1.5;" x1="707.5" x2="829.5" y1="77" y2="77"/><text fill="#000000" font-family="sans-serif" font-size="11" lengthAdjust="spacing" textLength="76" x="712.5" y="91.2104">book * : Book</text><text fill="#000000" font-family="sans-serif" font-size="11" lengthAdjust="spacing" textLength="112" x="712.5" y="104.0151">success * : boolean</text><line style="stroke:#A80036;stroke-width:1.5;" x1="707.5" x2="829.5" y1="110.6094" y2="110.6094"/><!--MD5=[b8cfd8c4119a3b0a7a46bfc5fc780f85]
class Error--><rect codeLine="63" fill="#FEFECE" filter="url(#f1v0f0b5nh6d2z)" height="86.4141" id="Error" style="stroke:#A80036;stroke-width:1.5;" width="124" x="865.5" y="39"/><ellipse cx="908.4" cy="55" fill="#ADD1B2" rx="11" ry="11" style="stroke:#A80036;stroke-width:1.0;"/><path d="M910.7438,50.6719 C909.8063,50.2344 909.2125,50.0938 908.3375,50.0938 C905.7125,50.0938 903.7125,52.1719 903.7125,54.8906 L903.7125,56.0156 C903.7125,58.5938 905.8219,60.4844 908.7125,60.4844 C909.9313,60.4844 911.0875,60.1875 911.8375,59.6406 C912.4156,59.2344 912.7438,58.7813 912.7438,58.3906 C912.7438,57.9375 912.3531,57.5469 911.8844,57.5469 C911.6656,57.5469 911.4625,57.625 911.275,57.8125 C910.8219,58.2969 910.8219,58.2969 910.6344,58.3906 C910.2125,58.6563 909.525,58.7813 908.7594,58.7813 C906.7125,58.7813 905.4156,57.6875 905.4156,55.9844 L905.4156,54.8906 C905.4156,53.1094 906.6656,51.7969 908.4,51.7969 C908.9781,51.7969 909.5875,51.9531 910.0563,52.2031 C910.5406,52.4844 910.7125,52.7031 910.8063,53.1094 C910.8688,53.5156 910.9,53.6406 911.0406,53.7656 C911.1813,53.9063 911.4156,54.0156 911.6344,54.0156 C911.9,54.0156 912.1656,53.875 912.3375,53.6563 C912.4469,53.5 912.4781,53.3125 912.4781,52.8906 L912.4781,51.4688 C912.4781,51.0313 912.4625,50.9063 912.3688,50.75 C912.2125,50.4844 911.9313,50.3438 911.6344,50.3438 C911.3375,50.3438 911.1344,50.4375 910.9156,50.75 L910.7438,50.6719 Z " fill="#000000"/><text fill="#000000" font-family="sans-serif" font-size="12" lengthAdjust="spacing" textLength="30" x="928.6" y="59.1543">Error</text><line style="stroke:#A80036;stroke-width:1.5;" x1="866.5" x2="988.5" y1="71" y2="71"/><text fill="#000000" font-family="sans-serif" font-size="11" lengthAdjust="spacing" textLength="112" x="871.5" y="85.2104">success * : boolean</text><text fill="#000000" font-family="sans-serif" font-size="11" lengthAdjust="spacing" textLength="79" x="871.5" y="98.0151">code * : Code</text><text fill="#000000" font-family="sans-serif" font-size="11" lengthAdjust="spacing" textLength="99" x="871.5" y="110.8198">message  : string</text><line style="stroke:#A80036;stroke-width:1.5;" x1="866.5" x2="988.5" y1="117.4141" y2="117.4141"/><!--MD5=[ba580110b1777f63e0f1dfe3fcefdac0]
class Code--><rect codeLine="97" fill="#FEFECE" filter="url(#f1v0f0b5nh6d2z)" height="48" id="Code" style="stroke:#A80036;stroke-width:1.5;" width="64" x="895.5" y="304.5"/><ellipse cx="910.5" cy="320.5" fill="#EB937F" rx="11" ry="11" style="stroke:#A80036;stroke-width:1.0;"/><path d="M909.2969,321.375 L910.75,321.375 L910.75,321.4844 C910.75,321.8906 910.7813,322.0469 910.8594,322.2031 C911.0156,322.4531 911.2969,322.6094 911.5938,322.6094 C911.8438,322.6094 912.1094,322.4688 912.2656,322.25 C912.3906,322.0938 912.4219,321.9375 912.4219,321.4844 L912.4219,319.5625 C912.4219,319.4063 912.4219,319.3594 912.4063,319.2031 C912.3438,318.7344 912.0313,318.4219 911.5781,318.4219 C911.3281,318.4219 911.0625,318.5625 910.8906,318.7813 C910.7813,318.9531 910.75,319.1094 910.75,319.5625 L910.75,319.6875 L909.2969,319.6875 L909.2969,317.2813 L913.2813,317.2813 L913.2813,318.1406 C913.2813,318.5469 913.3125,318.7188 913.3906,318.875 C913.5625,319.125 913.8438,319.2813 914.125,319.2813 C914.3906,319.2813 914.6563,319.1406 914.8281,318.9219 C914.9375,318.75 914.9688,318.6094 914.9688,318.1406 L914.9688,315.5938 L907.3438,315.5938 C906.9063,315.5938 906.7813,315.6094 906.625,315.7031 C906.375,315.8594 906.2188,316.1563 906.2188,316.4375 C906.2188,316.7188 906.3594,316.9688 906.5781,317.1406 C906.7344,317.25 906.9219,317.2813 907.3438,317.2813 L907.5938,317.2813 L907.5938,323.7969 L907.3438,323.7969 C906.9375,323.7969 906.7813,323.8125 906.625,323.9219 C906.375,324.0938 906.2188,324.3594 906.2188,324.6563 C906.2188,324.9219 906.3594,325.1719 906.5781,325.3281 C906.7188,325.4531 906.9531,325.5 907.3438,325.5 L915.3438,325.5 L915.3438,322.9219 C915.3438,322.4844 915.3125,322.3438 915.2344,322.1875 C915.0625,321.9375 914.7813,321.7813 914.5,321.7813 C914.2344,321.7813 913.9688,321.8906 913.7969,322.1406 C913.6875,322.2969 913.6563,322.4375 913.6563,322.9219 L913.6563,323.7969 L909.2969,323.7969 L909.2969,321.375 Z " fill="#000000"/><text fill="#000000" font-family="sans-serif" font-size="12" lengthAdjust="spacing" textLength="32" x="924.5" y="324.6543">Code</text><line style="stroke:#A80036;stroke-width:1.5;" x1="896.5" x2="958.5" y1="336.5" y2="336.5"/><line style="stroke:#A80036;stroke-width:1.5;" x1="896.5" x2="958.5" y1="344.5" y2="344.5"/><!--MD5=[01489d50c6bb1357b7a46a89ce5c49a4]
reverse link BasicUser to LogUser--><path codeLine="8" d="M155.839,131.179 C132.556,180.681 97.0392,256.193 77.5365,297.657 " fill="none" id="BasicUser-backto-LogUser" style="stroke:#A80036;stroke-width:1.0;"/><polygon fill="none" points="149.552,128.099,164.399,112.98,162.221,134.058,149.552,128.099" style="stroke:#A80036;stroke-width:1.0;"/><!--MD5=[496c3e86f1cfd581d5b7eb217c1186dc]
reverse link LogUser to NewUser--><path codeLine="13" d="M63.5,379.38 C63.5,412.748 63.5,455.5417 63.5,483.7055 " fill="none" id="LogUser-backto-NewUser" style="stroke:#A80036;stroke-width:1.0;"/><polygon fill="none" points="56.5001,379.063,63.5,359.063,70.5001,379.063,56.5001,379.063" style="stroke:#A80036;stroke-width:1.0;"/><!--MD5=[2bc7815a8d8637ffe96428405882d3a0]
reverse link BasicUser to User--><path codeLine="19" d="M182.193,133.166 C185.657,180.218 190.753,249.431 193.836,291.308 " fill="none" id="BasicUser-backto-User" style="stroke:#A80036;stroke-width:1.0;"/><polygon fill="none" points="175.195,133.44,180.707,112.98,189.157,132.413,175.195,133.44" style="stroke:#A80036;stroke-width:1.0;"/><!--MD5=[f47af5d789bcbe7329297648d2b84c4b]
link BookProperties to Author--><path codeLine="32" d="M501.978,157.022 C469.321,199.047 429.626,250.127 402.251,285.355 " fill="none" id="BookProperties-Author" style="stroke:#A80036;stroke-width:1.0;"/><text fill="#000000" font-family="sans-serif" font-size="13" lengthAdjust="spacing" textLength="42" x="477.5" y="200.0669">author</text><!--MD5=[47ec799c3110ec5d98202ecf8116398b]
link BookProperties to Language--><path codeLine="33" d="M547.693,157.022 C543.837,181.197 539.503,208.368 535.447,233.795 " fill="none" id="BookProperties-Language" style="stroke:#A80036;stroke-width:1.0;"/><text fill="#000000" font-family="sans-serif" font-size="13" lengthAdjust="spacing" textLength="59" x="543.5" y="200.0669">language</text><!--MD5=[44d153dd58bb34b0dd6358250764ec9e]
link BookProperties to Genre--><path codeLine="34" d="M597.04,157.008 C601.515,166.973 605.8,177.154 609.5,187 C616.668,206.076 623.185,227.048 628.751,246.837 " fill="none" id="BookProperties-Genre" style="stroke:#A80036;stroke-width:1.0;"/><text fill="#000000" font-family="sans-serif" font-size="13" lengthAdjust="spacing" textLength="37" x="616.5" y="200.0669">genre</text><!--MD5=[ca44c092171c064eccd8b7990676ba2f]
link BasicBook to Author--><path codeLine="42" d="M359.005,125.246 C358.408,144.136 357.793,166.681 357.5,187 C357.391,194.555 357.134,196.453 357.5,204 C358.814,231.111 361.742,261.452 364.376,285.277 " fill="none" id="BasicBook-Author" style="stroke:#A80036;stroke-width:1.0;"/><text fill="#000000" font-family="sans-serif" font-size="13" lengthAdjust="spacing" textLength="42" x="358.5" y="200.0669">author</text><!--MD5=[00edc5056a0e85a0057305cf1fabb03e]
reverse link BookProperties to Book--><path codeLine="47" d="M646.697,160.66 C669.709,183.187 693.638,208.591 713.5,234 C729.042,253.882 743.383,278.568 753.521,297.581 " fill="none" id="BookProperties-backto-Book" style="stroke:#A80036;stroke-width:1.0;"/><polygon fill="none" points="641.711,165.577,632.148,146.668,651.415,155.486,641.711,165.577" style="stroke:#A80036;stroke-width:1.0;"/><!--MD5=[e91d956254520c93ba498c17e9523afc]
link SuccessBook to Book--><path codeLine="54" d="M768.5,119.077 C768.5,167.562 768.5,252.841 768.5,297.813 " fill="none" id="SuccessBook-Book" style="stroke:#A80036;stroke-width:1.0;"/><text fill="#000000" font-family="sans-serif" font-size="13" lengthAdjust="spacing" textLength="31" x="769.5" y="200.0669">book</text><!--MD5=[f692cb77a7c535e3ed9b4b897651f10a]
link Error to Code--><path codeLine="69" d="M927.5,125.031 C927.5,176.915 927.5,263.312 927.5,304.412 " fill="none" id="Error-Code" style="stroke:#A80036;stroke-width:1.0;"/><text fill="#000000" font-family="sans-serif" font-size="13" lengthAdjust="spacing" textLength="31" x="928.5" y="200.0669">code</text><!--MD5=[36ab870fac22b3f5b9a7f45346ab0b7e]
@startuml
class BasicUser {
  email * : string
}

class LogUser {
    password *: string
}
BasicUser <|- - LogUser

class NewUser {
    name: string
}
LogUser <|- - NewUser

class User {
    id * : string
    name: string
}
BasicUser <|- - User

class BookProperties {
  isbn * : string
  title * : string
  edition  : integer
  year_published  : string
  author  : Author
  publisher  : string
  language  : Language
  genre  : Genre

}
BookProperties - - Author  :  author
BookProperties - - Language  :  language
BookProperties - - Genre  :  genre

class BasicBook {
  isbn * : string
  title * : string
  author  : Author

}
BasicBook - - Author  :  author

class Book {
    id * : string
}
BookProperties <|- - Book

class SuccessBook {
  book * : Book
  success * : boolean

}
SuccessBook - - Book  :  book

class Author {
  id * : string
  name * : string
  birth_date  : date

}

class Error {
  success * : boolean
  code * : Code
  message  : string

}
Error - - Code  :  code

enum Language {
    chinese
    spanish
    english
    hindi
    arabic
    portuguese
    bengali
    russian
    japanese
    french
    german
}

enum Genre{
    fantasy
    science_fiction
    adventure
    romance
    horror
    thriller
    LGTBQ
    mistery
    science
}

enum Code {}
@enduml

PlantUML version 1.2021.12(Tue Oct 05 16:01:58 UTC 2021)
(GPL source distribution)
Java Runtime: Java(TM) SE Runtime Environment
JVM: Java HotSpot(TM) 64-Bit Server VM
Default Encoding: UTF-8
Language: en
Country: US
--></g></svg>